<svg width="375" height="10" viewBox="0 0 375 10" fill="none" xmlns="http://www.w3.org/2000/svg">
<circle r="5" transform="matrix(4.37114e-08 -1 -1 -4.37114e-08 332 5)" fill="#DFF4F1"/>
<circle r="5" transform="matrix(4.37114e-08 -1 -1 -4.37114e-08 188 5)" fill="#DFF4F1"/>
<circle r="5" transform="matrix(4.37114e-08 -1 -1 -4.37114e-08 350 5)" fill="#DFF4F1"/>
<circle r="5" transform="matrix(4.37114e-08 -1 -1 -4.37114e-08 206 5)" fill="#DFF4F1"/>
<circle r="5" transform="matrix(4.37114e-08 -1 -1 -4.37114e-08 224 5)" fill="#DFF4F1"/>
<circle r="5" transform="matrix(4.37114e-08 -1 -1 -4.37114e-08 242 5)" fill="#DFF4F1"/>
<circle r="5" transform="matrix(4.37114e-08 -1 -1 -4.37114e-08 260 5)" fill="#DFF4F1"/>
<circle r="5" transform="matrix(4.37114e-08 -1 -1 -4.37114e-08 278 5)" fill="#DFF4F1"/>
<circle r="5" transform="matrix(4.37114e-08 -1 -1 -4.37114e-08 296 5)" fill="#DFF4F1"/>
<circle r="5" transform="matrix(4.37114e-08 -1 -1 -4.37114e-08 314 5)" fill="#DFF4F1"/>
<circle r="5" transform="matrix(4.37114e-08 -1 -1 -4.37114e-08 170 5)" fill="#DFF4F1"/>
<circle r="5" transform="matrix(4.37114e-08 -1 -1 -4.37114e-08 26 5)" fill="#DFF4F1"/>
<circle r="5" transform="matrix(4.37114e-08 -1 -1 -4.37114e-08 44 5)" fill="#DFF4F1"/>
<circle r="5" transform="matrix(4.37114e-08 -1 -1 -4.37114e-08 62 5)" fill="#DFF4F1"/>
<circle r="5" transform="matrix(4.37114e-08 -1 -1 -4.37114e-08 80 5)" fill="#DFF4F1"/>
<circle r="5" transform="matrix(4.37114e-08 -1 -1 -4.37114e-08 98 5)" fill="#DFF4F1"/>
<circle r="5" transform="matrix(4.37114e-08 -1 -1 -4.37114e-08 116 5)" fill="#DFF4F1"/>
<circle r="5" transform="matrix(4.37114e-08 -1 -1 -4.37114e-08 134 5)" fill="#DFF4F1"/>
<circle r="5" transform="matrix(4.37114e-08 -1 -1 -4.37114e-08 152 5)" fill="#DFF4F1"/>
</svg>
