<svg width="44" height="35" viewBox="0 0 44 35" fill="none" xmlns="http://www.w3.org/2000/svg">
<path d="M15.6147 6.78748C15.9175 6.98957 15.9175 7.31013 15.6078 7.50525L15.6009 7.51222C15.1949 7.77703 14.665 7.93731 14.0731 7.98609C13.6878 8.01396 13.3093 8.13243 12.9789 8.34149C12.6073 8.57842 12.4077 8.89898 12.4146 9.23347C12.4215 9.56797 12.6348 9.88156 13.0133 10.1185C13.7359 10.5575 14.9058 10.5575 15.6284 10.1185C15.9519 9.9164 16.1583 9.66553 16.2134 9.37981C16.2891 9.00351 16.5437 8.66205 16.9428 8.40421L16.9635 8.39027C17.2732 8.18818 17.7686 8.18818 18.0714 8.39027L21.5743 10.676L24.3132 8.90595C23.5906 8.82232 22.9231 8.58539 22.4138 8.23696C21.1545 7.37285 21.1614 6.01396 22.4207 5.14289C23.0745 4.68992 23.9554 4.43905 24.905 4.42512C25.8547 4.41118 26.7494 4.64811 27.4169 5.08714C27.9261 5.41466 28.2496 5.82581 28.3735 6.28574L31.2225 4.62721L23.5287 0.4739C22.3519 -0.160245 20.948 -0.160245 19.7712 0.4739L12.0637 4.62024L15.6147 6.78748Z" fill="#41BEAD"/>
<path d="M23.508 22.5156L31.2431 18.5156L27.5545 16.0557C27.2517 15.8606 27.2517 15.5331 27.5614 15.3379L27.5752 15.331C27.9812 15.0662 28.5042 14.9059 29.096 14.8571C29.5089 14.8223 29.8874 14.7038 30.1902 14.5087C30.5619 14.2717 30.7614 13.9512 30.7545 13.6167C30.7477 13.2822 30.5343 12.9686 30.1558 12.7386C29.4401 12.2996 28.2702 12.2996 27.5476 12.7386C27.2242 12.9407 27.0246 13.1916 26.9627 13.4773C26.887 13.8536 26.6324 14.1881 26.2401 14.4459L26.2195 14.4599C25.9098 14.655 25.4143 14.655 25.1115 14.4599L21.6224 12.1881L18.8904 13.9512C19.6129 14.0348 20.2805 14.2717 20.7897 14.6202C22.0422 15.4843 22.0422 16.8362 20.7829 17.7003C20.1291 18.1463 19.2551 18.4041 18.3054 18.4111C17.3557 18.4181 16.468 18.1881 15.8004 17.756C15.2981 17.4285 14.9678 17.0174 14.8439 16.5644L11.8916 18.4668L19.8951 22.5156C21.0306 23.101 22.3725 23.101 23.508 22.5156Z" fill="#41BEAD"/>
<path d="M42.5775 10.8223L37.7534 8.22297C37.6983 8.18813 37.6364 8.15329 37.5813 8.12541L32.4682 5.3728L28.7245 7.5958C28.4148 7.79092 27.9193 7.79092 27.6165 7.5958L27.6028 7.58883C27.2036 7.32402 26.949 6.98953 26.8733 6.60625C26.8182 6.33447 26.6324 6.09057 26.3365 5.89545C25.9718 5.65852 25.4832 5.52611 24.967 5.53308C24.4509 5.54005 23.9623 5.67942 23.6113 5.92332C22.93 6.39022 22.93 7.1498 23.6044 7.60973C23.9072 7.81879 24.2995 7.9512 24.7399 7.98604C25.3249 8.03482 25.841 8.1951 26.2333 8.45294L26.2539 8.46688C26.5567 8.662 26.5567 8.98952 26.247 9.18464L22.7305 11.4634L25.4419 13.2265C25.5726 12.7596 25.9374 12.3205 26.481 11.993C27.8161 11.1777 29.9013 11.1707 31.2295 11.986C31.9176 12.4042 32.303 12.9756 32.3168 13.5888C32.3305 14.2021 31.9658 14.7805 31.2914 15.2125C30.7821 15.54 30.149 15.7561 29.454 15.8397L32.4338 17.8815L31.2432 18.5156V24.7386L21.7188 29.5261L21.7051 29.5191L21.6913 29.5261L12.1669 24.7386L11.8917 18.4669L10.6117 17.8327L14.5343 15.331C14.8439 15.1359 15.3394 15.1359 15.6422 15.331L15.656 15.3379C16.0551 15.6028 16.3098 15.9372 16.3855 16.3205C16.4405 16.5853 16.6263 16.8362 16.9222 17.0313C17.287 17.2683 17.7756 17.4007 18.2917 17.3937C18.8078 17.3867 19.2896 17.2474 19.6474 17.0034C20.3287 16.5366 20.3287 15.777 19.6543 15.317C19.3515 15.108 18.9593 14.9756 18.5188 14.9407C17.9407 14.892 17.4246 14.7317 17.0255 14.4738L17.0048 14.4599C16.702 14.2648 16.702 13.9373 17.0117 13.7421L20.5283 11.4704L17.8169 9.70729C17.6861 10.1742 17.3214 10.6062 16.7846 10.9407C15.4495 11.7561 13.3644 11.763 12.0293 10.9477C12.0018 10.9268 11.9743 10.9129 11.9467 10.892C11.3136 10.4808 10.9557 9.93029 10.942 9.34492C10.9282 8.73168 11.293 8.15329 11.9674 7.72123C12.4766 7.39371 13.1097 7.17768 13.8048 7.09406L10.8938 5.41461L0.83266 10.8362C0.0963105 11.2334 0.110074 12.2996 0.846424 12.6829L7.92089 16.3414V27.4285L21.712 34.3623L35.503 27.4285V16.3275L37.5263 15.2822C37.5813 15.2543 37.6295 15.2264 37.6777 15.1986L42.5637 12.6759C43.3001 12.2857 43.3138 11.2195 42.5775 10.8223Z" fill="#41BEAD"/>
</svg>
